<mxfile host="65bd71144e">
    <diagram id="5dnf5juI7i7CxpLFzq6b" name="Componets">
        <mxGraphModel dx="1763" dy="618" grid="1" gridSize="10" guides="1" tooltips="1" connect="1" arrows="1" fold="1" page="1" pageScale="1" pageWidth="827" pageHeight="1169" math="0" shadow="0">
            <root>
                <mxCell id="0"/>
                <mxCell id="1" parent="0"/>
                <mxCell id="23" value="" style="edgeStyle=none;html=1;" parent="1" source="2" target="4" edge="1">
                    <mxGeometry relative="1" as="geometry"/>
                </mxCell>
                <mxCell id="2" value="&lt;h3&gt;Lists queue&lt;/h3&gt;" style="rounded=0;whiteSpace=wrap;html=1;" parent="1" vertex="1">
                    <mxGeometry x="-440" y="120" width="120" height="40" as="geometry"/>
                </mxCell>
                <mxCell id="9" value="" style="edgeStyle=none;html=1;" parent="1" source="4" target="8" edge="1">
                    <mxGeometry relative="1" as="geometry"/>
                </mxCell>
                <mxCell id="4" value="&lt;h3&gt;Lists Receiver&lt;/h3&gt;" style="rounded=0;whiteSpace=wrap;html=1;" parent="1" vertex="1">
                    <mxGeometry x="-270" y="120" width="120" height="40" as="geometry"/>
                </mxCell>
                <mxCell id="14" style="edgeStyle=none;html=1;entryX=1;entryY=0.5;entryDx=0;entryDy=0;entryPerimeter=0;" parent="1" source="5" target="8" edge="1">
                    <mxGeometry relative="1" as="geometry">
                        <mxPoint x="60" y="310" as="targetPoint"/>
                    </mxGeometry>
                </mxCell>
                <mxCell id="18" value="" style="edgeStyle=none;html=1;" parent="1" source="5" target="17" edge="1">
                    <mxGeometry relative="1" as="geometry"/>
                </mxCell>
                <mxCell id="24" value="" style="edgeStyle=none;html=1;" parent="1" source="5" target="20" edge="1">
                    <mxGeometry relative="1" as="geometry"/>
                </mxCell>
                <mxCell id="27" value="Queue" style="edgeLabel;html=1;align=center;verticalAlign=middle;resizable=0;points=[];" parent="24" vertex="1" connectable="0">
                    <mxGeometry x="-0.1125" y="-1" relative="1" as="geometry">
                        <mxPoint as="offset"/>
                    </mxGeometry>
                </mxCell>
                <mxCell id="5" value="&lt;h3&gt;Lists Service&lt;/h3&gt;" style="rounded=0;whiteSpace=wrap;html=1;" parent="1" vertex="1">
                    <mxGeometry x="-60" y="120" width="120" height="40" as="geometry"/>
                </mxCell>
                <mxCell id="7" value="" style="edgeStyle=none;html=1;" parent="1" source="6" target="4" edge="1">
                    <mxGeometry relative="1" as="geometry"/>
                </mxCell>
                <mxCell id="6" value="Receives list from queue and stores them" style="rounded=1;whiteSpace=wrap;html=1;" parent="1" vertex="1">
                    <mxGeometry x="-270" y="20" width="120" height="60" as="geometry"/>
                </mxCell>
                <mxCell id="8" value="Lists DB" style="shape=cylinder3;whiteSpace=wrap;html=1;boundedLbl=1;backgroundOutline=1;size=15;" parent="1" vertex="1">
                    <mxGeometry x="-270" y="220" width="120" height="80" as="geometry"/>
                </mxCell>
                <mxCell id="13" value="" style="edgeStyle=none;html=1;" parent="1" source="12" target="5" edge="1">
                    <mxGeometry relative="1" as="geometry"/>
                </mxCell>
                <mxCell id="26" value="REST" style="edgeLabel;html=1;align=center;verticalAlign=middle;resizable=0;points=[];" parent="13" vertex="1" connectable="0">
                    <mxGeometry x="-0.2222" y="1" relative="1" as="geometry">
                        <mxPoint as="offset"/>
                    </mxGeometry>
                </mxCell>
                <mxCell id="12" value="" style="verticalLabelPosition=bottom;sketch=0;aspect=fixed;html=1;verticalAlign=top;strokeColor=none;align=center;outlineConnect=0;shape=mxgraph.citrix.tablet_1;" parent="1" vertex="1">
                    <mxGeometry x="-19.310000000000002" y="25" width="38.61" height="50" as="geometry"/>
                </mxCell>
                <mxCell id="17" value="retrive list and update to export items ans list&lt;br&gt;" style="rounded=1;whiteSpace=wrap;html=1;" parent="1" vertex="1">
                    <mxGeometry x="100" y="110" width="120" height="60" as="geometry"/>
                </mxCell>
                <mxCell id="22" value="" style="edgeStyle=none;html=1;" parent="1" source="20" target="21" edge="1">
                    <mxGeometry relative="1" as="geometry"/>
                </mxCell>
                <mxCell id="20" value="&lt;h3&gt;Lists Data&lt;/h3&gt;" style="rounded=0;whiteSpace=wrap;html=1;" parent="1" vertex="1">
                    <mxGeometry x="-60" y="240" width="120" height="40" as="geometry"/>
                </mxCell>
                <mxCell id="21" value="Data to be exported to payment engine" style="rounded=1;whiteSpace=wrap;html=1;" parent="1" vertex="1">
                    <mxGeometry x="100" y="230" width="120" height="60" as="geometry"/>
                </mxCell>
            </root>
        </mxGraphModel>
    </diagram>
    <diagram id="WzF0AmbgtxvJANu2kFVP" name="tech diagram">
        <mxGraphModel dx="936" dy="1787" grid="1" gridSize="10" guides="1" tooltips="1" connect="1" arrows="1" fold="1" page="1" pageScale="1" pageWidth="827" pageHeight="1169" math="0" shadow="0">
            <root>
                <mxCell id="0"/>
                <mxCell id="1" parent="0"/>
                <mxCell id="YZDC3BdVD34oTd83J8oh-3" value="" style="edgeStyle=none;html=1;" edge="1" parent="1" source="YZDC3BdVD34oTd83J8oh-1" target="YZDC3BdVD34oTd83J8oh-2">
                    <mxGeometry relative="1" as="geometry"/>
                </mxCell>
                <mxCell id="YZDC3BdVD34oTd83J8oh-1" value="&lt;h2&gt;list queue&lt;/h2&gt;" style="rounded=0;whiteSpace=wrap;html=1;" vertex="1" parent="1">
                    <mxGeometry y="120" width="190" height="100" as="geometry"/>
                </mxCell>
                <mxCell id="YZDC3BdVD34oTd83J8oh-8" value="" style="edgeStyle=none;html=1;fontFamily=Times New Roman;" edge="1" parent="1" source="YZDC3BdVD34oTd83J8oh-2" target="YZDC3BdVD34oTd83J8oh-6">
                    <mxGeometry relative="1" as="geometry"/>
                </mxCell>
                <mxCell id="YZDC3BdVD34oTd83J8oh-2" value="&lt;h2&gt;list receiver&lt;/h2&gt;" style="rounded=0;whiteSpace=wrap;html=1;fontFamily=Times New Roman;fontStyle=1" vertex="1" parent="1">
                    <mxGeometry x="240" y="120" width="220" height="100" as="geometry"/>
                </mxCell>
                <mxCell id="YZDC3BdVD34oTd83J8oh-4" value="&lt;h3&gt;Java&lt;/h3&gt;" style="text;html=1;strokeColor=none;fillColor=none;align=center;verticalAlign=middle;whiteSpace=wrap;rounded=0;" vertex="1" parent="1">
                    <mxGeometry x="280" y="190" width="120" height="20" as="geometry"/>
                </mxCell>
                <mxCell id="YZDC3BdVD34oTd83J8oh-6" value="&lt;h2&gt;List DB&lt;/h2&gt;" style="shape=cylinder3;whiteSpace=wrap;html=1;boundedLbl=1;backgroundOutline=1;size=15;fontFamily=Times New Roman;" vertex="1" parent="1">
                    <mxGeometry x="240" y="280" width="230" height="170" as="geometry"/>
                </mxCell>
                <mxCell id="YZDC3BdVD34oTd83J8oh-7" value="&lt;h3&gt;Mysql&lt;/h3&gt;" style="text;html=1;strokeColor=none;fillColor=none;align=center;verticalAlign=middle;whiteSpace=wrap;rounded=0;fontFamily=Times New Roman;" vertex="1" parent="1">
                    <mxGeometry x="325" y="410" width="60" height="30" as="geometry"/>
                </mxCell>
                <mxCell id="YZDC3BdVD34oTd83J8oh-15" value="" style="edgeStyle=none;html=1;fontFamily=Times New Roman;" edge="1" parent="1" source="YZDC3BdVD34oTd83J8oh-9" target="YZDC3BdVD34oTd83J8oh-13">
                    <mxGeometry relative="1" as="geometry"/>
                </mxCell>
                <mxCell id="YZDC3BdVD34oTd83J8oh-9" value="&lt;h2&gt;list Service&lt;/h2&gt;" style="rounded=0;whiteSpace=wrap;html=1;fontFamily=Times New Roman;fontStyle=1" vertex="1" parent="1">
                    <mxGeometry x="560" y="120" width="220" height="100" as="geometry"/>
                </mxCell>
                <mxCell id="YZDC3BdVD34oTd83J8oh-10" value="&lt;h3&gt;Java&lt;/h3&gt;" style="text;html=1;strokeColor=none;fillColor=none;align=center;verticalAlign=middle;whiteSpace=wrap;rounded=0;" vertex="1" parent="1">
                    <mxGeometry x="610" y="190" width="120" height="20" as="geometry"/>
                </mxCell>
                <mxCell id="YZDC3BdVD34oTd83J8oh-11" value="" style="verticalLabelPosition=bottom;sketch=0;aspect=fixed;html=1;verticalAlign=top;strokeColor=none;align=center;outlineConnect=0;shape=mxgraph.citrix.tablet_1;fontFamily=Times New Roman;" vertex="1" parent="1">
                    <mxGeometry x="600" y="-40" width="61" height="79" as="geometry"/>
                </mxCell>
                <mxCell id="YZDC3BdVD34oTd83J8oh-12" value="&lt;h3&gt;React Native&lt;/h3&gt;" style="text;html=1;strokeColor=none;fillColor=none;align=center;verticalAlign=middle;whiteSpace=wrap;rounded=0;" vertex="1" parent="1">
                    <mxGeometry x="570.5" y="60" width="120" height="20" as="geometry"/>
                </mxCell>
                <mxCell id="YZDC3BdVD34oTd83J8oh-13" value="&lt;h2&gt;Data Queue&amp;nbsp;&lt;/h2&gt;" style="rounded=0;whiteSpace=wrap;html=1;fontFamily=Times New Roman;fontStyle=1" vertex="1" parent="1">
                    <mxGeometry x="550" y="340" width="240" height="100" as="geometry"/>
                </mxCell>
                <mxCell id="YZDC3BdVD34oTd83J8oh-14" value="&lt;p&gt;Whatever used by company&lt;/p&gt;" style="text;html=1;strokeColor=none;fillColor=none;align=center;verticalAlign=middle;whiteSpace=wrap;rounded=0;" vertex="1" parent="1">
                    <mxGeometry x="600" y="355" width="180" height="15" as="geometry"/>
                </mxCell>
            </root>
        </mxGraphModel>
    </diagram>
    <diagram id="6-4lyBnrdnp9k0_eYrVT" name="physical">
        <mxGraphModel dx="936" dy="1787" grid="1" gridSize="10" guides="1" tooltips="1" connect="1" arrows="1" fold="1" page="1" pageScale="1" pageWidth="827" pageHeight="1169" math="0" shadow="0">
            <root>
                <mxCell id="0"/>
                <mxCell id="1" parent="0"/>
                <mxCell id="5lJGFtONVSeyOe2QD_vB-1" value="" style="edgeStyle=none;html=1;" edge="1" parent="1" source="5lJGFtONVSeyOe2QD_vB-2">
                    <mxGeometry relative="1" as="geometry">
                        <mxPoint x="252.5" y="100" as="targetPoint"/>
                    </mxGeometry>
                </mxCell>
                <mxCell id="5lJGFtONVSeyOe2QD_vB-2" value="&lt;h2&gt;list queue&lt;/h2&gt;" style="rounded=0;whiteSpace=wrap;html=1;" vertex="1" parent="1">
                    <mxGeometry y="120" width="190" height="100" as="geometry"/>
                </mxCell>
                <mxCell id="5lJGFtONVSeyOe2QD_vB-6" value="&lt;h2&gt;List DB&lt;/h2&gt;" style="shape=cylinder3;whiteSpace=wrap;html=1;boundedLbl=1;backgroundOutline=1;size=15;fontFamily=Times New Roman;" vertex="1" parent="1">
                    <mxGeometry x="250" y="390" width="230" height="170" as="geometry"/>
                </mxCell>
                <mxCell id="5lJGFtONVSeyOe2QD_vB-7" value="&lt;h3&gt;Mysql&lt;/h3&gt;" style="text;html=1;strokeColor=none;fillColor=none;align=center;verticalAlign=middle;whiteSpace=wrap;rounded=0;fontFamily=Times New Roman;" vertex="1" parent="1">
                    <mxGeometry x="325" y="410" width="60" height="30" as="geometry"/>
                </mxCell>
                <mxCell id="5lJGFtONVSeyOe2QD_vB-8" value="" style="edgeStyle=none;html=1;fontFamily=Times New Roman;" edge="1" parent="1" source="5lJGFtONVSeyOe2QD_vB-9" target="5lJGFtONVSeyOe2QD_vB-13">
                    <mxGeometry relative="1" as="geometry"/>
                </mxCell>
                <mxCell id="5lJGFtONVSeyOe2QD_vB-9" value="&lt;h2&gt;list Service&lt;/h2&gt;" style="rounded=0;whiteSpace=wrap;html=1;fontFamily=Times New Roman;fontStyle=1" vertex="1" parent="1">
                    <mxGeometry x="570" y="130" width="170" height="20" as="geometry"/>
                </mxCell>
                <mxCell id="5lJGFtONVSeyOe2QD_vB-30" value="" style="edgeStyle=none;html=1;fontFamily=Times New Roman;" edge="1" parent="1" source="5lJGFtONVSeyOe2QD_vB-11" target="5lJGFtONVSeyOe2QD_vB-22">
                    <mxGeometry relative="1" as="geometry"/>
                </mxCell>
                <mxCell id="5lJGFtONVSeyOe2QD_vB-11" value="" style="verticalLabelPosition=bottom;sketch=0;aspect=fixed;html=1;verticalAlign=top;strokeColor=none;align=center;outlineConnect=0;shape=mxgraph.citrix.tablet_1;fontFamily=Times New Roman;" vertex="1" parent="1">
                    <mxGeometry x="610" y="-60" width="61" height="79" as="geometry"/>
                </mxCell>
                <mxCell id="5lJGFtONVSeyOe2QD_vB-13" value="&lt;h2&gt;Data Queue&amp;nbsp;&lt;/h2&gt;" style="rounded=0;whiteSpace=wrap;html=1;fontFamily=Times New Roman;fontStyle=1" vertex="1" parent="1">
                    <mxGeometry x="535" y="440" width="240" height="100" as="geometry"/>
                </mxCell>
                <mxCell id="5lJGFtONVSeyOe2QD_vB-27" value="" style="edgeStyle=none;html=1;fontFamily=Times New Roman;" edge="1" parent="1" source="5lJGFtONVSeyOe2QD_vB-18" target="5lJGFtONVSeyOe2QD_vB-6">
                    <mxGeometry relative="1" as="geometry"/>
                </mxCell>
                <mxCell id="5lJGFtONVSeyOe2QD_vB-18" value="" style="whiteSpace=wrap;html=1;aspect=fixed;fontFamily=Times New Roman;" vertex="1" parent="1">
                    <mxGeometry x="260" y="60" width="220" height="220" as="geometry"/>
                </mxCell>
                <mxCell id="5lJGFtONVSeyOe2QD_vB-17" value="&lt;h2&gt;list receiver&lt;/h2&gt;" style="rounded=0;whiteSpace=wrap;html=1;fontFamily=Times New Roman;fontStyle=1" vertex="1" parent="1">
                    <mxGeometry x="280" y="110" width="150" height="50" as="geometry"/>
                </mxCell>
                <mxCell id="5lJGFtONVSeyOe2QD_vB-19" value="Consumer group" style="text;html=1;strokeColor=none;fillColor=none;align=center;verticalAlign=middle;whiteSpace=wrap;rounded=0;fontFamily=Times New Roman;" vertex="1" parent="1">
                    <mxGeometry x="290" y="70" width="170" height="40" as="geometry"/>
                </mxCell>
                <mxCell id="5lJGFtONVSeyOe2QD_vB-20" value="&lt;h2&gt;list receiver&lt;/h2&gt;" style="rounded=0;whiteSpace=wrap;html=1;fontFamily=Times New Roman;fontStyle=1" vertex="1" parent="1">
                    <mxGeometry x="310" y="150" width="150" height="50" as="geometry"/>
                </mxCell>
                <mxCell id="5lJGFtONVSeyOe2QD_vB-21" value="&lt;h2&gt;list receiver&lt;/h2&gt;" style="rounded=0;whiteSpace=wrap;html=1;fontFamily=Times New Roman;fontStyle=1" vertex="1" parent="1">
                    <mxGeometry x="325" y="190" width="150" height="50" as="geometry"/>
                </mxCell>
                <mxCell id="5lJGFtONVSeyOe2QD_vB-29" style="edgeStyle=none;html=1;entryX=0.93;entryY=0.138;entryDx=0;entryDy=0;entryPerimeter=0;fontFamily=Times New Roman;" edge="1" parent="1" source="5lJGFtONVSeyOe2QD_vB-22" target="5lJGFtONVSeyOe2QD_vB-6">
                    <mxGeometry relative="1" as="geometry"/>
                </mxCell>
                <mxCell id="5lJGFtONVSeyOe2QD_vB-22" value="" style="whiteSpace=wrap;html=1;aspect=fixed;fontFamily=Times New Roman;" vertex="1" parent="1">
                    <mxGeometry x="560" y="60" width="210" height="210" as="geometry"/>
                </mxCell>
                <mxCell id="5lJGFtONVSeyOe2QD_vB-23" value="Load Balancer" style="text;html=1;strokeColor=none;fillColor=none;align=center;verticalAlign=middle;whiteSpace=wrap;rounded=0;fontFamily=Times New Roman;" vertex="1" parent="1">
                    <mxGeometry x="570" y="75" width="180" height="35" as="geometry"/>
                </mxCell>
                <mxCell id="5lJGFtONVSeyOe2QD_vB-24" value="&lt;h2&gt;list service&lt;/h2&gt;" style="rounded=0;whiteSpace=wrap;html=1;fontFamily=Times New Roman;fontStyle=1" vertex="1" parent="1">
                    <mxGeometry x="585" y="115" width="150" height="50" as="geometry"/>
                </mxCell>
                <mxCell id="5lJGFtONVSeyOe2QD_vB-25" value="&lt;h2&gt;list service&lt;/h2&gt;" style="rounded=0;whiteSpace=wrap;html=1;fontFamily=Times New Roman;fontStyle=1" vertex="1" parent="1">
                    <mxGeometry x="600" y="150" width="150" height="50" as="geometry"/>
                </mxCell>
                <mxCell id="5lJGFtONVSeyOe2QD_vB-26" value="&lt;h2&gt;list service&lt;/h2&gt;" style="rounded=0;whiteSpace=wrap;html=1;fontFamily=Times New Roman;fontStyle=1" vertex="1" parent="1">
                    <mxGeometry x="615" y="190" width="150" height="50" as="geometry"/>
                </mxCell>
            </root>
        </mxGraphModel>
    </diagram>
</mxfile>